<?xml version="1.0" encoding="UTF-8"?>
<svg width="608px" height="595px" viewBox="0 0 608 595" version="1.1" xmlns="http://www.w3.org/2000/svg" xmlns:xlink="http://www.w3.org/1999/xlink">
    <!-- Generator: Sketch 43.1 (39012) - http://www.bohemiancoding.com/sketch -->
    <title>closed</title>
    <desc>Created with Sketch.</desc>
    <defs></defs>
    <g id="Page-1" stroke="none" stroke-width="1" fill="none" fill-rule="evenodd">
        <g id="closed" fill-rule="nonzero">
            <g id="Group" transform="translate(96.000000, 424.000000)" fill="#ED584F">
                <path d="M0.487,0.469 L0.487,78 L40.473,78 L40.473,0.469 C34.995,4.836 28.046,7.455 20.48,7.455 C12.912,7.455 5.964,4.836 0.487,0.469 Z" id="Shape"></path>
                <path d="M376.36,0.469 L376.36,78 L416.346,78 L416.346,0.469 C410.869,4.836 403.921,7.455 396.353,7.455 C388.787,7.455 381.838,4.836 376.36,0.469 Z" id="Shape"></path>
            </g>
            <polygon id="Shape" fill="#F5921E" points="11.7726691 11.651 11.7726691 131.918 181.397861 131.918 181.397861 11.651"></polygon>
            <rect id="Rectangle-path" fill="#00ACED" x="60.3317678" y="51.32" width="72.5010612" height="39.757"></rect>
            <polygon id="Shape" fill="#F8C31C" points="11.7726691 172.841 11.7726691 322.926 181.397861 322.926 181.397861 172.841"></polygon>
            <rect id="Rectangle-path" fill="#CAC1B9" x="60.3317678" y="212.51" width="72.5010612" height="69.58"></rect>
            <polygon id="Shape" fill="#F8C31C" points="429.441671 203.175 429.441671 325.442 574.161384 325.442 574.161384 203.175"></polygon>
            <rect id="Rectangle-path" fill="#75706B" x="477.48816" y="243.43" width="48.6374141" height="41.757"></rect>
            <polygon id="Shape" fill="#F5921E" points="232.404908 203.565 232.404908 353.832 377.122248 353.832 377.122248 203.565"></polygon>
            <rect id="Rectangle-path" fill="#69C9ED" x="280.441905" y="243.23" width="48.6350409" height="69.76"></rect>
            <polygon id="Shape" fill="#9B4C14" points="232.99702 10 232.99702 163.398 595.578269 163.398 595.578269 10"></polygon>
            <rect id="Rectangle-path" fill="#EDEDED" x="284.001695" y="52.32" width="260.363058" height="68.753"></rect>
            <g id="Group" transform="translate(84.000000, 367.000000)" fill="#F8C31C">
                <ellipse id="Oval" cx="32.48" cy="32.65" rx="31.99" ry="31.806"></ellipse>
                <ellipse id="Oval" cx="408.35" cy="32.65" rx="31.989" ry="31.806"></ellipse>
            </g>
            <g id="Group" fill="#231F20">
                <path d="M193,492 C187.49,492 183,496.49 183,502 C183,507.51 187.49,512 193,512 C198.51,512 203,507.51 203,502 C203,496.49 198.51,492 193,492 Z" id="Shape"></path>
                <path d="M544.94,492 L516.385,492 L516.385,428.863 C523.791,421.321 528.369,411.01 528.369,399.649 C528.369,376.597 509.547,357.843 486.412,357.843 C465.551,357.843 448.203,373.094 444.994,392.992 C385.344,433.242 317.9,445.346 244.439,428.929 C198.074,418.567 163.468,399.428 152.293,392.727 C148.972,372.959 131.689,357.842 110.922,357.842 C87.787,357.842 68.965,376.596 68.965,399.648 C68.965,411.009 73.543,421.32 80.949,428.862 L80.949,492 L53,492 C47.49,492 43,496.49 43,502 C43,507.51 47.49,512 53,512 L153,512 C158.51,512 163,507.51 163,502 C163,496.49 158.51,492 153,492 L140.895,492 L140.895,428.863 C144.875,424.809 148.034,419.954 150.108,414.566 C166.729,423.742 198.48,439.052 239.354,448.285 C261.858,453.368 284.151,455.915 305.987,455.915 C318.45,455.915 330.764,455.085 342.882,453.423 C379.817,448.357 414.937,435.521 447.489,415.224 C449.561,420.349 452.622,424.974 456.44,428.863 L456.44,492 L444.94,492 C439.43,492 434.94,496.49 434.94,502 C434.94,507.51 439.43,512 444.94,512 L544.94,512 C550.46,512 554.94,507.51 554.94,502 C554.94,496.49 550.46,492 544.94,492 Z M120.895,492 L100.949,492 L100.949,440.251 C104.146,441.031 107.484,441.454 110.922,441.454 C114.358,441.454 117.695,441.031 120.895,440.251 L120.895,492 Z M110.922,421.455 C98.815,421.455 88.965,411.673 88.965,399.649 C88.965,387.625 98.815,377.843 110.922,377.843 C123.028,377.843 132.879,387.625 132.879,399.649 C132.879,411.673 123.028,421.455 110.922,421.455 Z M496.385,492 L476.44,492 L476.44,440.251 C479.639,441.031 482.977,441.454 486.413,441.454 C489.851,441.454 493.188,441.031 496.386,440.251 L496.385,492 L496.385,492 Z M486.413,421.455 C474.306,421.455 464.456,411.673 464.456,399.649 C464.456,387.625 474.306,377.843 486.413,377.843 C498.52,377.843 508.37,387.625 508.37,399.649 C508.37,411.673 498.52,421.455 486.413,421.455 Z" id="Shape"></path>
                <path d="M404.94,492 C399.43,492 394.94,496.49 394.94,502 C394.94,507.51 399.43,512 404.94,512 C410.46,512 414.94,507.51 414.94,502 C414.94,496.49 410.46,492 404.94,492 Z" id="Shape"></path>
                <path d="M12.3659675,141.917 L181.819103,141.917 C188.37149,141.917 193.68507,137.44 193.68507,131.917 L193.68507,11.651 C193.68507,6.128 188.37149,1.651 181.819103,1.651 L12.3659675,1.651 C5.81239364,1.651 0.5,6.128 0.5,11.651 L0.5,131.918 C0.5,137.44 5.81239364,141.917 12.3659675,141.917 Z M24.2319349,21.651 L169.953135,21.651 L169.953135,121.918 L24.2319349,121.918 L24.2319349,21.651 Z" id="Shape"></path>
                <path d="M595.578269,0 L233.366052,0 C226.812478,0 221.500084,4.477 221.500084,10 L221.500084,163.398 C221.500084,168.921 226.812478,173.398 233.366052,173.398 L595.578269,173.398 C602.131842,173.398 607.444236,168.921 607.444236,163.398 L607.444236,10 C607.444236,4.477 602.133029,0 595.578269,0 Z M583.712301,153.398 L245.232019,153.398 L245.232019,20 L583.712301,20 L583.712301,153.398 Z" id="Shape"></path>
                <path d="M133.308654,41.321 L60.8752291,41.321 C54.3216553,41.321 49.0092616,45.798 49.0092616,51.321 L49.0092616,91.078 C49.0092616,96.601 54.3216553,101.078 60.8752291,101.078 L133.308654,101.078 C139.863415,101.078 145.174622,96.601 145.174622,91.078 L145.174622,51.321 C145.174622,45.798 139.862228,41.321 133.308654,41.321 Z M121.442687,81.078 L72.7411966,81.078 L72.7411966,61.321 L121.442687,61.321 L121.442687,81.078 Z" id="Shape"></path>
                <path d="M12.3659675,332.926 L181.819103,332.926 C188.37149,332.926 193.68507,328.449 193.68507,322.926 L193.68507,172.841 C193.68507,167.318 188.37149,162.841 181.819103,162.841 L12.3659675,162.841 C5.81239364,162.841 0.5,167.318 0.5,172.841 L0.5,322.926 C0.5,328.448 5.81239364,332.926 12.3659675,332.926 Z M24.2319349,182.841 L169.953135,182.841 L169.953135,312.926 L24.2319349,312.926 L24.2319349,182.841 Z" id="Shape"></path>
                <path d="M133.308654,202.51 L60.8752291,202.51 C54.3216553,202.51 49.0092616,206.987 49.0092616,212.51 L49.0092616,282.086 C49.0092616,287.609 54.3216553,292.086 60.8752291,292.086 L133.308654,292.086 C139.863415,292.086 145.174622,287.609 145.174622,282.086 L145.174622,212.51 C145.174622,206.987 139.862228,202.51 133.308654,202.51 Z M121.442687,272.086 L72.7411966,272.086 L72.7411966,222.51 L121.442687,222.51 L121.442687,272.086 Z" id="Shape"></path>
                <path d="M574.182743,335.442 C580.733943,335.442 586.04871,330.965 586.04871,325.442 L586.04871,203.175 C586.04871,197.652 580.733943,193.175 574.182743,193.175 L429.610168,193.175 C423.057781,193.175 417.744201,197.652 417.744201,203.175 L417.744201,325.442 C417.744201,330.965 423.057781,335.442 429.610168,335.442 L574.182743,335.442 L574.182743,335.442 Z M441.476136,213.175 L562.316775,213.175 L562.316775,315.442 L441.476136,315.442 L441.476136,213.175 Z" id="Shape"></path>
                <path d="M526.190837,233.429 L477.60326,233.429 C471.05206,233.429 465.737293,237.906 465.737293,243.429 L465.737293,285.186 C465.737293,290.709 471.05206,295.186 477.60326,295.186 L526.190837,295.186 C532.743224,295.186 538.056805,290.709 538.056805,285.186 L538.056805,243.429 C538.056805,237.907 532.742038,233.429 526.190837,233.429 Z M514.32487,275.187 L489.469228,275.187 L489.469228,253.43 L514.32487,253.43 L514.32487,275.187 Z" id="Shape"></path>
                <path d="M232.77394,363.831 L377.344141,363.831 C383.897715,363.831 389.210109,359.354 389.210109,353.831 L389.210109,203.565 C389.210109,198.042 383.897715,193.565 377.344141,193.565 L232.77394,193.565 C226.220366,193.565 220.907973,198.042 220.907973,203.565 L220.907973,353.832 C220.907973,359.354 226.220366,363.831 232.77394,363.831 Z M244.639908,213.565 L365.478174,213.565 L365.478174,343.832 L244.639908,343.832 L244.639908,213.565 Z" id="Shape"></path>
                <path d="M329.352236,233.234 L280.765845,233.234 C274.212272,233.234 268.899878,237.711 268.899878,243.234 L268.899878,312.992 C268.899878,318.515 274.212272,322.992 280.765845,322.992 L329.352236,322.992 C335.90581,322.992 341.218203,318.515 341.218203,312.992 L341.218203,243.234 C341.218203,237.711 335.906996,233.234 329.352236,233.234 Z M317.486268,302.992 L292.631813,302.992 L292.631813,253.234 L317.486268,253.234 L317.486268,302.992 Z" id="Shape"></path>
                <path d="M284.320889,131.073 L544.425269,131.073 C550.978843,131.073 556.291237,126.596 556.291237,121.073 L556.291237,52.321 C556.291237,46.798 550.978843,42.321 544.425269,42.321 L284.320889,42.321 C277.767315,42.321 272.454922,46.798 272.454922,52.321 L272.454922,121.074 C272.454922,126.596 277.767315,131.073 284.320889,131.073 Z M296.186857,62.321 L532.559302,62.321 L532.559302,111.074 L296.186857,111.074 L296.186857,62.321 Z" id="Shape"></path>
            </g>
            <g id="close" transform="translate(198.000000, 429.000000)">
                <path d="M201.027344,162.696517 L10.9726562,162.696517 C6.62789844,162.696517 3.10546875,159.183677 3.10546875,154.850746 L3.10546875,78.0447761 C3.10546875,73.7118458 6.62789844,70.199005 10.9726562,70.199005 L201.027344,70.199005 C205.372102,70.199005 208.894531,73.7118458 208.894531,78.0447761 L208.894531,154.850746 C208.894531,159.183677 205.372102,162.696517 201.027344,162.696517 Z" id="Shape" fill="#F3F3F3"></path>
                <path d="M201.027344,70.199005 L188.605469,70.199005 C192.950227,70.199005 196.472656,73.7118458 196.472656,78.0447761 L196.472656,154.850746 C196.472656,159.183677 192.950227,162.696517 188.605469,162.696517 L201.027344,162.696517 C205.372102,162.696517 208.894531,159.183677 208.894531,154.850746 L208.894531,78.0447761 C208.894531,73.7118458 205.372102,70.199005 201.027344,70.199005 Z" id="Shape" fill="#E4E4E4"></path>
                <path d="M15.5273438,148.656716 L15.5273438,84.238806 C15.5273438,83.3266318 16.2689297,82.5870647 17.1835938,82.5870647 L194.816406,82.5870647 C195.73107,82.5870647 196.472656,83.3266318 196.472656,84.238806 L196.472656,148.656716 C196.472656,149.568891 195.73107,150.308458 194.816406,150.308458 L17.1835938,150.308458 C16.2689297,150.308458 15.5273438,149.568891 15.5273438,148.656716 Z" id="Shape" fill="#F75632"></path>
                <path d="M194.816406,82.5870647 L182.394531,82.5870647 C183.309195,82.5870647 184.050781,83.3266318 184.050781,84.238806 L184.050781,148.656716 C184.050781,149.568891 183.309195,150.308458 182.394531,150.308458 L194.816406,150.308458 C195.73107,150.308458 196.472656,149.568891 196.472656,148.656716 L196.472656,84.238806 C196.472656,83.3266318 195.73107,82.5870647 194.816406,82.5870647 Z" id="Shape" fill="#E33629"></path>
                <ellipse id="Oval" fill="#FFD54F" cx="106" cy="17.7562189" rx="14.4921875" ry="14.4527363"></ellipse>
                <path d="M106,3.30348259 C103.776898,3.30348259 101.671805,3.8039602 99.7890625,4.69631343 C104.684938,7.01577114 108.070312,11.9912289 108.070312,17.7562189 C108.070312,23.521209 104.684938,28.4966667 99.7890625,30.8161244 C101.671805,31.7080647 103.776898,32.2089552 106,32.2089552 C114.003828,32.2089552 120.492188,25.7382587 120.492188,17.7562189 C120.492188,9.7741791 114.003828,3.30348259 106,3.30348259 Z" id="Shape" fill="#FFC328"></path>
                <g id="Group" fill="#000000">
                    <path d="M15.5273438,98.3896866 C13.8122969,98.3896866 12.421875,99.7763234 12.421875,101.486701 L12.421875,148.656716 C12.421875,151.275139 14.5580234,153.405473 17.1835938,153.405473 L145.824531,153.405473 C147.539578,153.405473 148.93,152.018836 148.93,150.308458 C148.93,148.59808 147.539578,147.211443 145.824531,147.211443 L18.6328125,147.211443 L18.6328125,101.486701 C18.6328125,99.7763234 17.2423906,98.3896866 15.5273438,98.3896866 Z" id="Shape"></path>
                    <path d="M158.904352,153.405473 L194.816406,153.405473 C197.441977,153.405473 199.578125,151.275139 199.578125,148.656716 L199.578125,84.238806 C199.578125,81.6203831 197.441977,79.4900498 194.816406,79.4900498 L17.1835938,79.4900498 C14.5580234,79.4900498 12.421875,81.6203831 12.421875,84.238806 L12.421875,88.3681592 C12.421875,90.0785373 13.8122969,91.4651741 15.5273438,91.4651741 C17.2423906,91.4651741 18.6328125,90.0785373 18.6328125,88.3681592 L18.6328125,85.6840796 L193.367188,85.6840796 L193.367188,147.211443 L158.904352,147.211443 C157.189305,147.211443 155.798883,148.59808 155.798883,150.308458 C155.798883,152.018836 157.189305,153.405473 158.904352,153.405473 Z" id="Shape"></path>
                    <path d="M201.027344,67.10199 L197.253164,67.10199 C195.538117,67.10199 194.147695,68.4886269 194.147695,70.199005 C194.147695,71.9093831 195.538117,73.2960199 197.253164,73.2960199 L201.027344,73.2960199 C203.652914,73.2960199 205.789062,75.4263532 205.789062,78.0447761 L205.789062,154.850746 C205.789062,157.469169 203.652914,159.599502 201.027344,159.599502 L10.9726562,159.599502 C8.34708594,159.599502 6.2109375,157.469169 6.2109375,154.850746 L6.2109375,78.0447761 C6.2109375,75.4263532 8.34708594,73.2960199 10.9726562,73.2960199 L38.46475,73.2960199 L38.4684766,73.2960199 L38.4709609,73.2960199 L173.528625,73.2960199 L173.531109,73.2960199 L173.534836,73.2960199 L183.640031,73.2960199 C185.355078,73.2960199 186.7455,71.9093831 186.7455,70.199005 C186.7455,68.4886269 185.355078,67.10199 183.640031,67.10199 L174.599805,67.10199 L121.569164,25.9220149 C122.861453,23.4811542 123.597242,20.7033383 123.597242,17.7562189 C123.597242,8.0790796 115.703141,0.206467662 105.999586,0.206467662 C96.2960313,0.206467662 88.4023438,8.0790796 88.4023438,17.7562189 C88.4023438,20.7033383 89.1377188,23.4811542 90.4304219,25.9220149 L37.3997813,67.10199 L10.9726563,67.10199 C4.922375,67.10199 2.94209102e-14,72.0109652 2.94209102e-14,78.0447761 L2.94209102e-14,154.850746 C2.94209102e-14,160.884557 4.922375,165.793532 10.9726563,165.793532 L201.027344,165.793532 C207.077625,165.793532 212,160.884557 212,154.850746 L212,78.0447761 C212,72.0109652 207.077625,67.10199 201.027344,67.10199 Z M106,6.40049751 C112.278844,6.40049751 117.386719,11.4944677 117.386719,17.7562189 C117.386719,24.0179701 112.278844,29.1119403 106,29.1119403 C99.7211563,29.1119403 94.6132813,24.0179701 94.6132813,17.7562189 C94.6132813,11.4944677 99.7211563,6.40049751 106,6.40049751 Z M94.2493203,30.8066269 C97.3672109,33.6017861 101.487133,35.3059701 106,35.3059701 C110.512867,35.3059701 114.632375,33.6017861 117.75068,30.8066269 L164.490883,67.10199 L47.5091172,67.10199 L94.2493203,30.8066269 Z" id="Shape"></path>
                    <path d="M63.5494844,101.15305 C61.8344375,101.15305 60.4440156,102.539687 60.4440156,104.250065 L60.4440156,128.211876 C60.4440156,129.720741 61.5342422,131.009925 63.0252813,131.264706 C63.2497031,131.303109 63.4136719,131.331189 66.0636719,131.331189 C67.3526484,131.331189 69.2295937,131.324582 71.98725,131.309303 C73.7022969,131.299806 75.0848516,129.905323 75.0753281,128.194945 C75.0658047,126.484567 73.6666875,125.088433 71.9524688,125.115274 C70.3330703,125.124358 68.2983672,125.132617 66.6549531,125.134682 L66.6549531,104.250478 C66.6549531,102.539687 65.2645313,101.15305 63.5494844,101.15305 L63.5494844,101.15305 Z" id="Shape"></path>
                    <path d="M157.884516,128.232522 C157.884516,126.522144 156.494094,125.135507 154.779047,125.135507 L147.844328,125.135507 L147.844328,119.448149 L154.038703,119.448149 C155.75375,119.448149 157.144172,118.061512 157.144172,116.351134 C157.144172,114.640756 155.75375,113.254119 154.038703,113.254119 L147.844328,113.254119 L147.844328,107.566761 L154.779047,107.566761 C156.494094,107.566761 157.884516,106.180124 157.884516,104.469746 C157.884516,102.759368 156.494094,101.372731 154.779047,101.372731 L144.738859,101.372731 C143.023813,101.372731 141.633391,102.759368 141.633391,104.469746 L141.633391,128.232935 C141.633391,129.943313 143.023813,131.32995 144.738859,131.32995 L154.779047,131.32995 C156.494094,131.329537 157.884516,129.9429 157.884516,128.232522 Z" id="Shape"></path>
                    <path d="M161.840469,127.854274 C161.840469,128.056612 161.861586,128.253995 161.898438,128.445597 C161.950195,129.19301 162.269023,129.899129 162.805234,130.430164 C163.386992,131.006209 164.173711,131.329124 164.993141,131.329124 L165.005148,131.329124 C165.204727,131.328299 169.918414,131.310129 171.802812,131.277507 C178.919305,131.153214 184.08432,124.978592 184.08432,116.595592 C184.08432,107.783139 179.04932,101.86206 171.555203,101.86206 L164.945937,101.86206 C164.121125,101.86206 163.33068,102.189104 162.748094,102.771343 C162.165508,103.353582 161.838812,104.142701 161.840469,104.965269 L161.840469,104.983025 L161.840469,104.983851 L161.840469,127.854274 Z M171.555203,108.056502 C177.417914,108.056502 177.873383,114.592856 177.873383,116.596005 C177.873383,120.767478 175.962484,125.009975 171.694328,125.084716 C170.862063,125.099169 169.421953,125.110731 168.088258,125.119403 C168.079562,122.379164 168.068383,118.524413 168.068383,116.570403 C168.068383,114.935179 168.062172,110.90906 168.057203,108.056502 L171.555203,108.056502 Z" id="Shape"></path>
                    <path d="M43.0451094,107.34708 C44.8326172,107.34708 46.5559453,107.87192 48.0291797,108.864204 C49.4506563,109.821388 51.3810156,109.44892 52.3412266,108.031726 C53.3014375,106.614119 52.9275391,104.689015 51.5064766,103.731418 C49.0026406,102.044577 46.076875,101.152637 43.0455234,101.152637 C34.7034063,101.152637 27.9160938,107.92106 27.9160938,116.240881 C27.9160938,124.560701 34.7029922,131.329124 43.0455234,131.329124 C46.3824531,131.329124 49.3781953,130.234846 51.7093672,128.163975 C52.1664922,127.75806 52.6008438,127.311677 53,126.836388 C54.1018203,125.525731 53.9295703,123.572134 52.6153359,122.473313 C51.3011016,121.37408 49.3421719,121.545861 48.2403516,122.85693 C48.0341484,123.102214 47.8117969,123.33098 47.5786797,123.537861 C46.3857656,124.597453 44.8607734,125.134682 43.0451094,125.134682 C38.1277031,125.134682 34.1266172,121.1449 34.1266172,116.240468 C34.1266172,111.336035 38.1272891,107.34708 43.0451094,107.34708 Z" id="Shape"></path>
                    <path d="M124.829492,125.135507 C122.466852,125.135507 120.194477,124.186995 118.750641,122.59802 C117.599133,121.330721 115.635648,121.234095 114.364063,122.382881 C113.093305,123.531667 112.996828,125.490219 114.148336,126.757517 C116.788813,129.663343 120.682242,131.329537 124.829492,131.329537 C129.945648,131.329537 134.242375,128.069826 135.046484,123.579154 C135.652258,120.195975 134.117328,115.77798 127.992516,113.525005 C125.05557,112.444766 122.320273,111.268313 121.46275,110.894194 C120.858219,110.401149 120.878922,109.718567 120.919914,109.433229 C120.978297,109.028965 121.274352,108.039985 122.762906,107.592776 C126.098594,106.590995 129.202406,109.031443 129.289359,109.100403 C130.601938,110.185597 132.549273,110.012164 133.647781,108.708527 C134.751258,107.399522 134.581492,105.445512 133.2685,104.34504 C133.039938,104.153438 127.592945,99.6726766 120.971258,101.661786 C117.614039,102.670174 115.238563,105.310896 114.771914,108.552851 C114.333422,111.59701 115.65718,114.525547 118.225195,116.195458 C118.362664,116.284652 118.506344,116.362697 118.65582,116.429179 C118.794945,116.491119 122.10993,117.962821 125.842703,119.335831 C126.646813,119.631493 129.246297,120.733204 128.932023,122.490244 C128.69932,123.790577 127.101039,125.135507 124.829492,125.135507 L124.829492,125.135507 Z" id="Shape"></path>
                    <path d="M109.094289,116.241294 C109.094289,107.921886 102.307391,101.15305 93.9648594,101.15305 C85.6227422,101.15305 78.8358438,107.921473 78.8358438,116.241294 C78.8358438,124.561114 85.6227422,131.329537 93.9648594,131.329537 C102.307391,131.329537 109.094289,124.560701 109.094289,116.241294 Z M85.0467813,116.241294 C85.0467813,111.337274 89.0474531,107.34708 93.9648594,107.34708 C98.8822656,107.34708 102.883352,111.336861 102.883352,116.241294 C102.883352,121.145726 98.8826797,125.135507 93.9648594,125.135507 C89.0474531,125.135507 85.0467813,121.145313 85.0467813,116.241294 Z" id="Shape"></path>
                </g>
            </g>
        </g>
    </g>
</svg>