<?xml version="1.0" encoding="UTF-8"?>
<svg width="2913px" height="492px" viewBox="0 0 2913 492" version="1.1" xmlns="http://www.w3.org/2000/svg" xmlns:xlink="http://www.w3.org/1999/xlink">
    <!-- Generator: Sketch 43.1 (39012) - http://www.bohemiancoding.com/sketch -->
    <title>rating-5-star</title>
    <desc>Created with Sketch.</desc>
    <defs></defs>
    <g id="Page-1" stroke="none" stroke-width="1" fill="none" fill-rule="evenodd">
        <g id="rating-5-star" fill-rule="nonzero" fill="#D1BC0E">
            <path d="M2909.75897,184.299 C2903.60697,165.441 2886.81397,153.256 2866.97797,153.256 L2739.05997,153.256 L2698.77797,30.926 C2692.58597,12.121 2675.82797,0 2656.04897,0 C2655.98597,0 2655.92097,0 2655.85797,0.001 C2635.99797,0.079 2619.24697,12.35 2613.18397,31.263 L2574.07597,153.256 L2445.09297,153.256 C2425.20697,153.256 2408.40097,165.482 2402.27897,184.402 C2396.15597,203.322 2402.61397,223.076 2418.73197,234.726 L2523.09297,310.16 L2482.92297,432.151 C2476.70597,451.031 2483.05597,470.813 2499.09997,482.547 C2507.15797,488.441 2516.40697,491.389 2525.66197,491.389 C2534.83297,491.388 2544.00897,488.492 2552.02697,482.696 L2656.56897,407.133 L2759.86897,482.569 C2775.89497,494.273 2796.64997,494.329 2812.74197,482.716 C2828.83397,471.103 2835.31697,451.388 2829.25997,432.489 L2790.04197,310.16 L2893.51597,234.597 C2909.53597,222.899 2915.91197,203.156 2909.75897,184.299 L2909.75897,184.299 Z" id="Full-Star"></path>
            <path d="M2309.75897,184.299 C2303.60697,165.441 2286.81397,153.256 2266.97797,153.256 L2139.05997,153.256 L2098.77797,30.926 C2092.58597,12.121 2075.82797,0 2056.04897,0 C2055.98597,0 2055.92097,0 2055.85797,0.001 C2035.99797,0.079 2019.24697,12.35 2013.18397,31.263 L1974.07597,153.256 L1845.09297,153.256 C1825.20697,153.256 1808.40097,165.482 1802.27897,184.402 C1796.15597,203.322 1802.61397,223.076 1818.73197,234.726 L1923.09297,310.16 L1882.92297,432.151 C1876.70597,451.031 1883.05597,470.813 1899.09997,482.547 C1907.15797,488.441 1916.40697,491.389 1925.66197,491.389 C1934.83297,491.388 1944.00897,488.492 1952.02697,482.696 L2056.56897,407.133 L2159.86897,482.569 C2175.89497,494.273 2196.64997,494.329 2212.74197,482.716 C2228.83397,471.103 2235.31697,451.388 2229.25997,432.489 L2190.04197,310.16 L2293.51597,234.597 C2309.53597,222.899 2315.91197,203.156 2309.75897,184.299 L2309.75897,184.299 Z" id="Full-Star"></path>
            <path d="M1709.75897,184.299 C1703.60697,165.441 1686.81397,153.256 1666.97797,153.256 L1539.05997,153.256 L1498.77797,30.926 C1492.58597,12.121 1475.82797,0 1456.04897,0 C1455.98597,0 1455.92097,0 1455.85797,0.001 C1435.99797,0.079 1419.24697,12.35 1413.18397,31.263 L1374.07597,153.256 L1245.09297,153.256 C1225.20697,153.256 1208.40097,165.482 1202.27897,184.402 C1196.15597,203.322 1202.61397,223.076 1218.73197,234.726 L1323.09297,310.16 L1282.92297,432.151 C1276.70597,451.031 1283.05597,470.813 1299.09997,482.547 C1307.15797,488.441 1316.40697,491.389 1325.66197,491.389 C1334.83297,491.388 1344.00897,488.492 1352.02697,482.696 L1456.56897,407.133 L1559.86897,482.569 C1575.89497,494.273 1596.64997,494.329 1612.74197,482.716 C1628.83397,471.103 1635.31697,451.388 1629.25997,432.489 L1590.04197,310.16 L1693.51597,234.597 C1709.53597,222.899 1715.91197,203.156 1709.75897,184.299 L1709.75897,184.299 Z" id="Full-Star"></path>
            <path d="M1109.75897,184.299 C1103.60697,165.441 1086.81397,153.256 1066.97797,153.256 L939.059967,153.256 L898.777967,30.926 C892.585967,12.121 875.827967,0 856.048967,0 C855.985967,0 855.920967,0 855.857967,0.001 C835.997967,0.079 819.246967,12.35 813.183967,31.263 L774.075967,153.256 L645.092967,153.256 C625.206967,153.256 608.400967,165.482 602.278967,184.402 C596.155967,203.322 602.613967,223.076 618.731967,234.726 L723.092967,310.16 L682.922967,432.151 C676.705967,451.031 683.055967,470.813 699.099967,482.547 C707.157967,488.441 716.406967,491.389 725.661967,491.389 C734.832967,491.388 744.008967,488.492 752.026967,482.696 L856.568967,407.133 L959.868967,482.569 C975.894967,494.273 996.649967,494.329 1012.74197,482.716 C1028.83397,471.103 1035.31697,451.388 1029.25997,432.489 L990.041967,310.16 L1093.51597,234.597 C1109.53597,222.899 1115.91197,203.156 1109.75897,184.299 L1109.75897,184.299 Z" id="Full-Star"></path>
            <path d="M509.759,184.639 C503.607,165.781 486.814,153.596 466.978,153.596 L339.06,153.596 L298.778,31.266 C292.586,12.461 275.828,0.34 256.049,0.34 C255.986,0.34 255.921,0.34 255.858,0.341 C235.998,0.419 219.247,12.69 213.184,31.603 L174.076,153.596 L45.093,153.596 C25.207,153.596 8.401,165.822 2.279,184.742 C-3.844,203.662 2.614,223.416 18.732,235.066 L123.093,310.5 L82.923,432.491 C76.706,451.371 83.056,471.153 99.1,482.887 C107.158,488.781 116.407,491.729 125.662,491.729 C134.833,491.728 144.009,488.832 152.027,483.036 L256.569,407.473 L359.869,482.909 C375.895,494.613 396.65,494.669 412.742,483.056 C428.834,471.443 435.317,451.728 429.26,432.829 L390.042,310.5 L493.516,234.937 C509.536,223.239 515.912,203.496 509.759,184.639 L509.759,184.639 Z" id="Full-Star"></path>
        </g>
    </g>
</svg>