<?xml version="1.0" encoding="UTF-8"?>
<svg width="513px" height="492px" viewBox="0 0 513 492" version="1.1" xmlns="http://www.w3.org/2000/svg" xmlns:xlink="http://www.w3.org/1999/xlink">
    <!-- Generator: Sketch 43.1 (39012) - http://www.bohemiancoding.com/sketch -->
    <title>star-solo</title>
    <desc>Created with Sketch.</desc>
    <defs></defs>
    <g id="Page-1" stroke="none" stroke-width="1" fill="none" fill-rule="evenodd">
        <g id="star-solo" fill-rule="nonzero" fill="#D1BC0E">
            <path d="M509.758967,184.299 C503.606967,165.441 486.813967,153.256 466.977967,153.256 L339.059967,153.256 L298.777967,30.926 C292.585967,12.121 275.827967,0 256.048967,0 C255.985967,0 255.920967,0 255.857967,0.001 C235.997967,0.079 219.246967,12.35 213.183967,31.263 L174.075967,153.256 L45.0929675,153.256 C25.2069675,153.256 8.40096748,165.482 2.27896748,184.402 C-3.84403252,203.322 2.61396748,223.076 18.7319675,234.726 L123.092967,310.16 L82.9229675,432.151 C76.7059675,451.031 83.0559675,470.813 99.0999675,482.547 C107.157967,488.441 116.406967,491.389 125.661967,491.389 C134.832967,491.388 144.008967,488.492 152.026967,482.696 L256.568967,407.133 L359.868967,482.569 C375.894967,494.273 396.649967,494.329 412.741967,482.716 C428.833967,471.103 435.316967,451.388 429.259967,432.489 L390.041967,310.16 L493.515967,234.597 C509.535967,222.899 515.911967,203.156 509.758967,184.299 L509.758967,184.299 Z" id="Full-Star"></path>
        </g>
    </g>
</svg>