<?xml version="1.0" encoding="UTF-8"?>
<svg width="2913px" height="492px" viewBox="0 0 2913 492" version="1.1" xmlns="http://www.w3.org/2000/svg" xmlns:xlink="http://www.w3.org/1999/xlink">
    <!-- Generator: Sketch 43.1 (39012) - http://www.bohemiancoding.com/sketch -->
    <title>rating-1-star</title>
    <desc>Created with Sketch.</desc>
    <defs></defs>
    <g id="Page-1" stroke="none" stroke-width="1" fill="none" fill-rule="evenodd">
        <g id="rating-1-star" fill-rule="nonzero" fill="#D1BC0E">
            <path d="M2909.75897,184.299 C2903.60697,165.441 2886.81397,153.256 2866.97797,153.256 L2739.05997,153.256 L2698.77797,30.926 C2692.58597,12.121 2675.82797,0 2656.04897,0 C2655.98597,0 2655.92097,0 2655.85797,0.001 C2635.99797,0.079 2619.24697,12.35 2613.18397,31.263 L2574.07597,153.256 L2445.09297,153.256 C2425.20697,153.256 2408.40097,165.482 2402.27897,184.402 C2396.15597,203.322 2402.61397,223.076 2418.73197,234.726 L2523.09297,310.16 L2482.92297,432.151 C2476.70597,451.031 2483.05597,470.813 2499.09997,482.547 C2507.15797,488.441 2516.40697,491.389 2525.66197,491.389 C2534.83297,491.388 2544.00897,488.492 2552.02697,482.696 L2656.56897,407.133 L2759.86897,482.569 C2775.89497,494.273 2796.64997,494.329 2812.74197,482.716 C2828.83397,471.103 2835.31697,451.388 2829.25997,432.489 L2790.04197,310.16 L2893.51597,234.597 C2909.53597,222.899 2915.91197,203.156 2909.75897,184.299 L2909.75897,184.299 Z M2875.82397,210.369 L2754.86497,298.701 L2800.68997,441.647 C2803.77497,451.268 2797.25497,456.894 2795.18397,458.389 C2793.11297,459.884 2785.71897,464.299 2777.55897,458.339 L2656.65797,370.05 L2534.45197,458.383 C2526.25097,464.31 2518.87597,459.844 2516.80997,458.333 C2514.74497,456.822 2508.25197,451.146 2511.41797,441.533 L2558.45097,298.7 L2436.30597,210.413 C2428.09997,204.481 2430.03397,196.073 2430.82197,193.638 C2431.60997,191.203 2434.96797,183.256 2445.09297,183.256 L2595.96297,183.256 L2641.75297,40.421 C2644.83997,30.792 2653.42097,30.011 2655.97797,30 L2656.02997,30 C2658.64997,30 2667.14297,30.769 2670.28497,40.309 L2717.35497,183.256 L2866.97897,183.256 C2877.07897,183.256 2880.44797,191.176 2881.23997,193.604 C2882.03197,196.032 2883.97997,204.414 2875.82397,210.369 L2875.82397,210.369 Z" id="Shape"></path>
            <path d="M2309.75897,184.299 C2303.60697,165.441 2286.81397,153.256 2266.97797,153.256 L2139.05997,153.256 L2098.77797,30.926 C2092.58597,12.121 2075.82797,0 2056.04897,0 C2055.98597,0 2055.92097,0 2055.85797,0.001 C2035.99797,0.079 2019.24697,12.35 2013.18397,31.263 L1974.07597,153.256 L1845.09297,153.256 C1825.20697,153.256 1808.40097,165.482 1802.27897,184.402 C1796.15597,203.322 1802.61397,223.076 1818.73197,234.726 L1923.09297,310.16 L1882.92297,432.151 C1876.70597,451.031 1883.05597,470.813 1899.09997,482.547 C1907.15797,488.441 1916.40697,491.389 1925.66197,491.389 C1934.83297,491.388 1944.00897,488.492 1952.02697,482.696 L2056.56897,407.133 L2159.86897,482.569 C2175.89497,494.273 2196.64997,494.329 2212.74197,482.716 C2228.83397,471.103 2235.31697,451.388 2229.25997,432.489 L2190.04197,310.16 L2293.51597,234.597 C2309.53597,222.899 2315.91197,203.156 2309.75897,184.299 L2309.75897,184.299 Z M2275.82397,210.369 L2154.86497,298.701 L2200.68997,441.647 C2203.77497,451.268 2197.25497,456.894 2195.18397,458.389 C2193.11297,459.884 2185.71897,464.299 2177.55897,458.339 L2056.65797,370.05 L1934.45197,458.383 C1926.25097,464.31 1918.87597,459.844 1916.80997,458.333 C1914.74497,456.822 1908.25197,451.146 1911.41797,441.533 L1958.45097,298.7 L1836.30597,210.413 C1828.09997,204.481 1830.03397,196.073 1830.82197,193.638 C1831.60997,191.203 1834.96797,183.256 1845.09297,183.256 L1995.96297,183.256 L2041.75297,40.421 C2044.83997,30.792 2053.42097,30.011 2055.97797,30 L2056.02997,30 C2058.64997,30 2067.14297,30.769 2070.28497,40.309 L2117.35497,183.256 L2266.97897,183.256 C2277.07897,183.256 2280.44797,191.176 2281.23997,193.604 C2282.03197,196.032 2283.97997,204.414 2275.82397,210.369 L2275.82397,210.369 Z" id="Shape"></path>
            <path d="M1709.75897,184.299 C1703.60697,165.441 1686.81397,153.256 1666.97797,153.256 L1539.05997,153.256 L1498.77797,30.926 C1492.58597,12.121 1475.82797,0 1456.04897,0 C1455.98597,0 1455.92097,0 1455.85797,0.001 C1435.99797,0.079 1419.24697,12.35 1413.18397,31.263 L1374.07597,153.256 L1245.09297,153.256 C1225.20697,153.256 1208.40097,165.482 1202.27897,184.402 C1196.15597,203.322 1202.61397,223.076 1218.73197,234.726 L1323.09297,310.16 L1282.92297,432.151 C1276.70597,451.031 1283.05597,470.813 1299.09997,482.547 C1307.15797,488.441 1316.40697,491.389 1325.66197,491.389 C1334.83297,491.388 1344.00897,488.492 1352.02697,482.696 L1456.56897,407.133 L1559.86897,482.569 C1575.89497,494.273 1596.64997,494.329 1612.74197,482.716 C1628.83397,471.103 1635.31697,451.388 1629.25997,432.489 L1590.04197,310.16 L1693.51597,234.597 C1709.53597,222.899 1715.91197,203.156 1709.75897,184.299 L1709.75897,184.299 Z M1675.82397,210.369 L1554.86497,298.701 L1600.68997,441.647 C1603.77497,451.268 1597.25497,456.894 1595.18397,458.389 C1593.11297,459.884 1585.71897,464.299 1577.55897,458.339 L1456.65797,370.05 L1334.45197,458.383 C1326.25097,464.31 1318.87597,459.844 1316.80997,458.333 C1314.74497,456.822 1308.25197,451.146 1311.41797,441.533 L1358.45097,298.7 L1236.30597,210.413 C1228.09997,204.481 1230.03397,196.073 1230.82197,193.638 C1231.60997,191.203 1234.96797,183.256 1245.09297,183.256 L1395.96297,183.256 L1441.75297,40.421 C1444.83997,30.792 1453.42097,30.011 1455.97797,30 L1456.02997,30 C1458.64997,30 1467.14297,30.769 1470.28497,40.309 L1517.35497,183.256 L1666.97897,183.256 C1677.07897,183.256 1680.44797,191.176 1681.23997,193.604 C1682.03197,196.032 1683.97997,204.414 1675.82397,210.369 L1675.82397,210.369 Z" id="Shape"></path>
            <path d="M1109.759,184.299 C1103.607,165.441 1086.814,153.256 1066.978,153.256 L939.06,153.256 L898.778,30.926 C892.586,12.121 875.828,0 856.049,0 C855.986,0 855.921,0 855.858,0.001 C835.998,0.079 819.247,12.35 813.184,31.263 L774.076,153.256 L645.093,153.256 C625.207,153.256 608.401,165.482 602.279,184.402 C596.156,203.322 602.614,223.076 618.732,234.726 L723.093,310.16 L682.923,432.151 C676.706,451.031 683.056,470.813 699.1,482.547 C707.158,488.441 716.407,491.389 725.662,491.389 C734.833,491.388 744.009,488.492 752.027,482.696 L856.569,407.133 L959.869,482.569 C975.895,494.273 996.65,494.329 1012.742,482.716 C1028.834,471.103 1035.317,451.388 1029.26,432.489 L990.042,310.16 L1093.516,234.597 C1109.536,222.899 1115.912,203.156 1109.759,184.299 L1109.759,184.299 Z M1075.824,210.369 L954.865,298.701 L1000.69,441.647 C1003.775,451.268 997.255,456.894 995.184,458.389 C993.113,459.884 985.719,464.299 977.559,458.339 L856.658,370.05 L734.452,458.383 C726.251,464.31 718.876,459.844 716.81,458.333 C714.745,456.822 708.252,451.146 711.418,441.533 L758.451,298.7 L636.306,210.413 C628.1,204.481 630.034,196.073 630.822,193.638 C631.61,191.203 634.968,183.256 645.093,183.256 L795.963,183.256 L841.753,40.421 C844.84,30.792 853.421,30.011 855.978,30 L856.03,30 C858.65,30 867.143,30.769 870.285,40.309 L917.355,183.256 L1066.979,183.256 C1077.079,183.256 1080.448,191.176 1081.24,193.604 C1082.032,196.032 1083.98,204.414 1075.824,210.369 L1075.824,210.369 Z" id="Shape"></path>
            <path d="M509.759,184.639 C503.607,165.781 486.814,153.596 466.978,153.596 L339.06,153.596 L298.778,31.266 C292.586,12.461 275.828,0.34 256.049,0.34 C255.986,0.34 255.921,0.34 255.858,0.341 C235.998,0.419 219.247,12.69 213.184,31.603 L174.076,153.596 L45.093,153.596 C25.207,153.596 8.401,165.822 2.279,184.742 C-3.844,203.662 2.614,223.416 18.732,235.066 L123.093,310.5 L82.923,432.491 C76.706,451.371 83.056,471.153 99.1,482.887 C107.158,488.781 116.407,491.729 125.662,491.729 C134.833,491.728 144.009,488.832 152.027,483.036 L256.569,407.473 L359.869,482.909 C375.895,494.613 396.65,494.669 412.742,483.056 C428.834,471.443 435.317,451.728 429.26,432.829 L390.042,310.5 L493.516,234.937 C509.536,223.239 515.912,203.496 509.759,184.639 L509.759,184.639 Z" id="Shape"></path>
        </g>
    </g>
</svg>