<?xml version="1.0" encoding="UTF-8"?>
<svg width="512px" height="512px" viewBox="0 0 512 512" version="1.1" xmlns="http://www.w3.org/2000/svg" xmlns:xlink="http://www.w3.org/1999/xlink">
    <!-- Generator: Sketch 43.1 (39012) - http://www.bohemiancoding.com/sketch -->
    <title>refer</title>
    <desc>Created with Sketch.</desc>
    <defs></defs>
    <g id="Page-1" stroke="none" stroke-width="1" fill="none" fill-rule="evenodd">
        <g id="refer" fill-rule="nonzero" fill="#FFFFFF">
            <path d="M403.777344,147.917969 C403.777344,66.355469 337.417969,0 255.859375,0 C174.296875,0 107.941406,66.355469 107.941406,147.917969 C107.941406,198.4375 133.40625,243.117188 172.164062,269.8125 C135.976562,282.300781 102.804688,302.929688 74.9375,330.796875 C26.613281,379.121094 2.84217094e-14,443.375 2.84217094e-14,511.714844 L39.976562,511.714844 C39.976562,392.679688 136.820312,295.835938 255.859375,295.835938 C337.417969,295.835938 403.777344,229.480469 403.777344,147.917969 L403.777344,147.917969 Z M255.859375,255.859375 C196.339844,255.859375 147.917969,207.4375 147.917969,147.917969 C147.917969,88.398438 196.339844,39.976562 255.859375,39.976562 C315.375,39.976562 363.796875,88.398438 363.796875,147.917969 C363.796875,207.4375 315.375,255.859375 255.859375,255.859375 L255.859375,255.859375 Z M512,367.796875 L417.910156,461.886719 L389.640625,433.617188 L436.472656,386.785156 L401.800781,386.785156 C353.902344,386.785156 314.898438,425.757812 314.859375,473.65625 L314.824219,511.730469 L274.847656,511.699219 L274.878906,473.621094 C274.9375,403.695312 331.875,346.804688 401.800781,346.804688 L434.472656,346.804688 L389.640625,301.972656 L417.910156,273.707031 L512,367.796875 Z" id="Shape"></path>
        </g>
    </g>
</svg>