<svg id="Capa_1" enable-background="new 0 0 512 512" height="512" viewBox="0 0 512 512" width="512" xmlns="http://www.w3.org/2000/svg"><g><g><g><g><g><g><g><circle cx="256" cy="256" fill="#ff73a5" r="256"/></g></g></g></g></g></g><path d="m511.946 261.279-89.604-89.604-316.206 241.422 92.436 92.436c18.461 4.231 37.684 6.467 57.428 6.467 139.621 0 253.136-111.773 255.946-250.721z" fill="#f73c89"/><g><path d="m362.654 90.937h-3.326l-103.208 15-95.905-15h-54.079v322.16h316.206v-241.423z" fill="#555a66"/></g><g><path d="m422.342 171.674-59.688-80.737h-3.326l-103.208 6.367v315.793h166.222z" fill="#333940"/></g><g><path d="m160.215 90.937h199.113v108.565h-199.113z" fill="#fff"/></g><g><path d="m256.12 90.937h103.207v108.565h-103.207z" fill="#e9edf5"/></g><g><path d="m160.215 259.564h199.113v108.565h-199.113z" fill="#fff"/></g><g><path d="m256.12 259.564h103.207v108.565h-103.207z" fill="#e9edf5"/></g><g><path d="m307.968 102.969h28.593v79.182h-28.593z" fill="#333940"/></g><g><path d="m193.786 285.527h131.97v34.092h-131.97z" fill="#dce1eb"/></g><g><path d="m256.12 285.526h69.636v34.092h-69.636z" fill="#bec3d2"/></g></g></svg>